<svg xmlns="http://www.w3.org/2000/svg" xmlns:xlink="http://www.w3.org/1999/xlink" width="1066" zoomAndPan="magnify" viewBox="0 0 799.92 809.04" height="1068" preserveAspectRatio="xMidYMid meet" version="1.2"><defs><clipPath id="6b1ac99541"><path d="M 0.433594 0 L 798.988281 0 L 798.988281 800.050781 L 0.433594 800.050781 Z M 0.433594 0 "/></clipPath><clipPath id="93a94d71eb"><path d="M 273.5 240.015625 L 525.953125 240.015625 L 525.953125 559.886719 L 273.5 559.886719 Z M 273.5 240.015625 "/></clipPath></defs><g id="e28980c476"><g clip-rule="nonzero" clip-path="url(#6b1ac99541)"><path style=" stroke:none;fill-rule:nonzero;fill:#ffffff;fill-opacity:1;" d="M 0.433594 0 L 798.988281 0 L 798.988281 800.050781 L 0.433594 800.050781 Z M 0.433594 0 "/><path style=" stroke:none;fill-rule:nonzero;fill:#ffffff;fill-opacity:1;" d="M 0.433594 0 L 798.988281 0 L 798.988281 800.050781 L 0.433594 800.050781 Z M 0.433594 0 "/></g><g clip-rule="nonzero" clip-path="url(#93a94d71eb)"><path style=" stroke:none;fill-rule:nonzero;fill:#f68340;fill-opacity:1;" d="M 501.238281 366.128906 C 501.238281 310.101562 455.785156 264.679688 399.722656 264.679688 C 343.648438 264.679688 298.195312 310.101562 298.195312 366.128906 C 298.195312 422.175781 343.648438 467.605469 399.722656 467.605469 C 455.785156 467.605469 501.238281 422.175781 501.238281 366.128906 Z M 399.722656 240.023438 C 469.402344 240.023438 525.902344 296.476562 525.902344 366.128906 C 525.902344 477.882812 399.722656 559.894531 399.722656 559.894531 C 399.707031 559.894531 273.53125 477.882812 273.53125 366.128906 C 273.53125 296.476562 330.027344 240.023438 399.722656 240.023438 "/></g><path style=" stroke:none;fill-rule:nonzero;fill:#f68340;fill-opacity:1;" d="M 408.414062 336.871094 L 404.121094 383.878906 L 395.285156 383.878906 L 391.011719 336.871094 C 390.929688 336.363281 390.886719 335.875 390.886719 335.363281 C 390.886719 330.480469 394.835938 326.53125 399.703125 326.53125 C 404.589844 326.53125 408.558594 330.480469 408.558594 335.363281 C 408.558594 335.875 408.496094 336.363281 408.414062 336.871094 Z M 390.886719 399.890625 C 390.886719 395.023438 394.835938 391.054688 399.703125 391.054688 C 404.589844 391.054688 408.558594 395.023438 408.558594 399.890625 C 408.558594 404.777344 404.589844 408.742188 399.703125 408.742188 C 394.835938 408.742188 390.886719 404.777344 390.886719 399.890625 Z M 462.5 399.707031 L 410.535156 309.75 C 407.757812 304.949219 403.917969 302.3125 399.707031 302.3125 C 395.511719 302.3125 391.671875 304.949219 388.898438 309.75 L 336.929688 399.707031 C 334.15625 404.507812 333.785156 409.160156 335.882812 412.792969 C 337.980469 416.449219 342.191406 418.441406 347.757812 418.441406 L 451.691406 418.441406 C 457.238281 418.441406 461.449219 416.449219 463.550781 412.792969 C 465.644531 409.160156 465.273438 404.507812 462.5 399.707031 "/></g></svg>