<svg xmlns="http://www.w3.org/2000/svg" xmlns:xlink="http://www.w3.org/1999/xlink" width="1066" zoomAndPan="magnify" viewBox="0 0 799.92 809.04" height="1068" preserveAspectRatio="xMidYMid meet" version="1.2"><defs><clipPath id="1888647bc7"><path d="M 0.433594 0 L 798.988281 0 L 798.988281 800.050781 L 0.433594 800.050781 Z M 0.433594 0 "/></clipPath><clipPath id="d51681f931"><path d="M 239.3125 344.945312 L 633 344.945312 L 633 628.269531 L 239.3125 628.269531 Z M 239.3125 344.945312 "/></clipPath><clipPath id="b17ccbac8d"><path d="M 463.121094 344.945312 L 239.3125 344.945312 L 239.3125 628.269531 L 463.121094 628.269531 L 632.925781 486.605469 Z M 463.121094 344.945312 "/></clipPath></defs><g id="dd4c89c4dc"><g clip-rule="nonzero" clip-path="url(#1888647bc7)"><path style=" stroke:none;fill-rule:nonzero;fill:#ffffff;fill-opacity:1;" d="M 0.433594 0 L 798.988281 0 L 798.988281 800.050781 L 0.433594 800.050781 Z M 0.433594 0 "/><path style=" stroke:none;fill-rule:nonzero;fill:#ffffff;fill-opacity:1;" d="M 0.433594 0 L 798.988281 0 L 798.988281 800.050781 L 0.433594 800.050781 Z M 0.433594 0 "/></g><g clip-rule="nonzero" clip-path="url(#d51681f931)"><g clip-rule="nonzero" clip-path="url(#b17ccbac8d)"><path style=" stroke:none;fill-rule:nonzero;fill:#f64540;fill-opacity:1;" d="M 239.3125 344.945312 L 633.308594 344.945312 L 633.308594 628.269531 L 239.3125 628.269531 Z M 239.3125 344.945312 "/></g></g><path style=" stroke:none;fill-rule:evenodd;fill:#ffffff;fill-opacity:1;" d="M 405.839844 486.664062 L 480.53125 411.976562 C 487.402344 405.101562 487.417969 393.941406 480.539062 387.066406 C 473.679688 380.203125 462.511719 380.195312 455.628906 387.074219 L 380.941406 461.765625 L 306.25 387.074219 C 299.378906 380.203125 288.214844 380.1875 281.339844 387.066406 C 274.480469 393.925781 274.46875 405.09375 281.351562 411.976562 L 356.039062 486.664062 L 281.351562 561.355469 C 274.480469 568.226562 274.464844 579.390625 281.339844 586.265625 C 288.203125 593.128906 299.371094 593.136719 306.25 586.253906 L 380.941406 511.566406 L 455.628906 586.253906 C 462.503906 593.128906 473.664062 593.140625 480.539062 586.265625 C 487.402344 579.402344 487.410156 568.238281 480.53125 561.355469 Z M 405.839844 486.664062 "/></g></svg>