<svg width="1440" height="507" viewBox="0 0 1440 507" fill="none" xmlns="http://www.w3.org/2000/svg">
<g opacity="0.1">
<path d="M0 688.588V-80.8698C0 -134.553 26.8324 -182.271 74.5343 -209.113L673.789 -549.106C712.546 -572.965 763.23 -572.965 801.988 -549.106L1329.69 -244.901L679.751 139.827C635.031 166.669 605.217 214.387 605.217 268.07V1037.53L482.982 968.933V199.475C482.982 145.792 509.814 98.0739 557.516 71.2324L1100.12 -244.901L977.888 -316.479L435.28 -0.345093C390.559 26.4965 360.745 74.2147 360.745 127.898V900.338L238.509 831.743V59.3028C238.509 5.61969 265.342 -42.0986 313.044 -68.9402L855.652 -385.074L733.416 -447.704L190.808 -131.57C146.087 -104.729 116.273 -57.0106 116.273 -3.32751V760.165L0 688.588Z" fill="white"/>
<path d="M1240.25 512.627L733.416 804.901V327.718C733.416 274.035 760.249 226.317 807.95 199.475L1332.67 -104.729L1398.26 -143.5C1425.09 -116.658 1440 -80.8697 1440 -42.0986V41.4084C1440 47.3732 1437.02 53.338 1431.06 59.3028L1228.32 178.599L1013.66 303.859C968.944 330.701 939.13 378.419 939.13 432.102V506.662L1440 214.387V640.87C1440 694.553 1413.17 742.271 1365.47 769.113L778.137 1109.11C763.23 1118.05 748.323 1124.02 730.435 1127V951.039L1162.73 700.518C1207.45 673.676 1237.27 625.958 1237.27 572.275V512.627" fill="white"/>
</g>
</svg>
